{"title":"For A Few Dollars More   (Western 1967)   Very good quality!  En","uid":9320776,"size":624234319,"categoryP":"video","categoryS":"movies","magnet":"?xt=urn:btih:93e8906b536ba5bfbcc962909a0562cbb3e91f1c&amp;dn=For+A+Few+Dollars+More+++%28Western+1967%29+++Very+good+quality%21++En&amp;tr=udp%3A%2F%2Ftracker.openbittorrent.com%3A80&amp;tr=udp%3A%2F%2Fopen.demonii.com%3A1337&amp;tr=udp%3A%2F%2Ftracker.coppersurfer.tk%3A6969&amp;tr=udp%3A%2F%2Fexodus.desync.com%3A6969","seeders":0,"leechers":1,"uploader":"BurtonW","files":8,"time":1386546495,"description":" &lt;a href=&quot;http://www.imdb.com/title/tt0059578/?ref_=nv_sr_1&quot; rel=&quot;nofollow&quot; target=&quot;_NEW&quot;&gt;http://www.imdb.com/title/tt0059578/?ref_=nv_sr_1&lt;/a&gt;\n\n\nVery good quality film.\n\n\nEnglish subtitles!\n\n\nStoryline:\n\nTwo bounty hunters are after the same man, Indio. At first, they go their own ways, but eventually get together to try and find him. But are they after him for the same reason ?\n\n\nTechnical info:\n\n\nGeneral:\n\nComplete name                  : For A Few Dollars More   (Western 1967)   Clint Eastwood, Lee Van Cleef &amp; Joseph Egger.mp4\nFormat                         : MPEG-4\nFormat profile                 : Base Media / Version 2\nCodec ID                       : mp42\nFile size                      : 595 MiB\nDuration                       : 2h 12mn\nOverall bit rate mode          : Variable\nOverall bit rate               : 629 Kbps\nEncoded date                   : UTC 2013-12-07 01:48:07\nTagged date                    : UTC 2013-12-07 06:51:16\n\nVideo:\n\nID                             : 1\nFormat                         : AVC\nFormat/Info                    : Advanced Video Codec\nFormat profile                 : &lt;a class=&quot;__cf_email__&quot; href=&quot;/cdn-cgi/l/email-protection&quot; data-cfemail=&quot;7c311d15123c3048524c&quot;&gt;[email&amp;#160;protected]&lt;/a&gt;&lt;script data-cfhash='f9e31' type=&quot;text/javascript&quot;&gt;\n/* &lt;![CDATA[ */!function(){try{var t=&quot;currentScript&quot;in document?document.currentScript:function(){for(var t=document.getElementsByTagName(&quot;script&quot;),e=t.length;e--;)if(t[e].getAttribute(&quot;data-cfhash&quot;))return t[e]}();if(t&amp;&amp;t.previousSibling){var e,r,n,i,c=t.previousSibling,a=c.getAttribute(&quot;data-cfemail&quot;);if(a){for(e=&quot;&quot;,r=parseInt(a.substr(0,2),16),n=2;a.length-n;n+=2)i=parseInt(a.substr(n,2),16)^r,e+=String.fromCharCode(i);e=document.createTextNode(e),c.parentNode.replaceChild(e,c)}t.parentNode.removeChild(t);}}catch(u){}}()/* ]]&gt; */&lt;/script&gt;\nFormat settings, CABAC         : Yes\nFormat settings, ReFrames      : 16 frames\nCodec ID                       : avc1\nCodec ID/Info                  : Advanced Video Coding\nDuration                       : 2h 12mn\nBit rate mode                  : Variable\nBit rate                       : 464 Kbps\nWidth                          : 752 pixels\nHeight                         : 320 pixels\nDisplay aspect ratio           : 2.35:1\nFrame rate mode                : Variable\nFrame rate                     : 23.976 fps\nMinimum frame rate             : 23.810 fps\nMaximum frame rate             : 24.390 fps\nColor space                    : YUV\nChroma subsampling             : 4:2:0\nBit depth                      : 8 bits\nScan type                      : Progressive\nBits/(Pixel*Frame)             : 0.080\nStream size                    : 439 MiB (74%)\nWriting library                : x264 core 130 r2273 b3065e6\nEncoding settings              : Deleted\nEncoded date                   : UTC 2013-12-07 01:48:08\nTagged date                    : UTC 2013-12-07 06:51:16\nColor primaries                : BT.601 NTSC\nTransfer characteristics       : BT.709\nMatrix coefficients            : BT.601\n\nAudio:\n\nID                             : 2\nFormat                         : AAC\nFormat/Info                    : Advanced Audio Codec\nFormat profile                 : LC\nCodec ID                       : 40\nDuration                       : 2h 12mn\nBit rate mode                  : Variable\nBit rate                       : 160 Kbps\nMaximum bit rate               : 337 Kbps\nChannel(s)                     : 2 channels\nChannel positions              : Front: L R\nSampling rate                  : 48.0 KHz\nCompression mode               : Lossy\nDelay relative to video        : 83ms\nStream size                    : 151 MiB (25%)\nLanguage                       : English\nEncoded date                   : UTC 2013-12-07 01:48:08\nTagged date                    : UTC 2013-12-07 06:51:15\n\nText:\n\nID                             : 3\nFormat                         : Timed text\nMuxing mode                    : sbtl\nCodec ID                       : tx3g\nDuration                       : 2h 10mn\nBit rate mode                  : Variable\nBit rate                       : 26 bps\nDelay relative to video        : 83ms\nStream size                    : 24.9 KiB (0%)\nLanguage                       : English\nEncoded date                   : UTC 2013-12-07 01:48:08\nTagged date                    : UTC 2013-12-07 06:49:51\n","torrent":{"xt":"urn:btih:93e8906b536ba5bfbcc962909a0562cbb3e91f1c","amp;dn":"For+A+Few+Dollars+More+++%28Western+1967%29+++Very+good+quality%21++En","amp;tr":["udp%3A%2F%2Ftracker.openbittorrent.com%3A80","udp%3A%2F%2Fopen.demonii.com%3A1337","udp%3A%2F%2Ftracker.coppersurfer.tk%3A6969","udp%3A%2F%2Fexodus.desync.com%3A6969"],"infoHash":"93e8906b536ba5bfbcc962909a0562cbb3e91f1c","infoHashBuffer":{"type":"Buffer","data":[147,232,144,107,83,107,165,191,188,201,98,144,154,5,98,203,179,233,31,28]},"announce":[],"urlList":[]}}